<svg width="39" height="28" viewBox="0 0 39 28" fill="none" xmlns="http://www.w3.org/2000/svg">
<g clip-path="url(#clip0_461_3016)">
<path d="M2.65907 27.9995H8.86358V13.5788L0 7.21667V25.4546C0 26.8607 1.18993 27.9995 2.65907 27.9995Z" fill="#4285F4"/>
<path d="M30.1367 27.9995H36.3413C37.8104 27.9995 39.0003 26.8607 39.0003 25.4546V7.21667L30.1367 13.5788V27.9995Z" fill="#34A853"/>
<path d="M30.1367 2.55169V13.5793L39.0003 7.21723V3.82412C39.0003 0.67912 35.2489 -1.11711 32.6185 0.77031L30.1367 2.55169Z" fill="#FBBC04"/>
<path fill-rule="evenodd" clip-rule="evenodd" d="M8.86328 13.5803V2.55273L19.4995 10.1872L30.1358 2.55273V13.5803L19.4995 21.2149L8.86328 13.5803Z" fill="#EA4335"/>
<path d="M0 3.82412V7.21723L8.86358 13.5793V2.55169L6.38178 0.77031C3.75151 -1.11711 0 0.67912 0 3.82412Z" fill="#C5221F"/>
</g>
<defs>
<clipPath id="clip0_461_3016">
<rect width="39" height="28" fill="white"/>
</clipPath>
</defs>
</svg>
